<svg width="250" height="250" viewBox="0 0 250 250" fill="none" xmlns="http://www.w3.org/2000/svg">
<path fill-rule="evenodd" clip-rule="evenodd" d="M119.961 26.166C119.96 28.4099 119.725 31.7956 119.44 33.6903C119.155 35.585 118.499 38.6037 117.983 40.3987C117.467 42.1936 116.258 45.3295 115.295 47.3678C114.332 49.4057 112.533 52.5615 111.298 54.3804C110.062 56.1997 107.639 59.1115 105.913 60.8517C104.137 62.6426 100.924 65.2955 98.5077 66.9657C96.1606 68.5881 93.0145 70.9832 91.5158 72.2878C90.0172 73.5925 87.7349 75.926 86.4437 77.4733C85.1523 79.0205 83.3335 81.4287 82.4017 82.8247C81.4699 84.2208 80.0097 86.8316 79.157 88.6266C78.3043 90.4215 77.1772 93.1607 76.6521 94.7135C76.127 96.2665 75.3476 99.1221 74.92 101.059C74.2817 103.953 74.1403 105.78 74.1288 111.29C74.1169 117.011 74.2374 118.552 74.9474 121.763C75.4055 123.833 76.2687 126.933 76.8657 128.652C77.4631 130.371 78.8387 133.507 79.9227 135.621C81.0066 137.735 82.9153 140.835 84.1643 142.511C85.413 144.186 88.0312 147.113 89.9819 149.015C91.933 150.917 95.0396 153.489 96.8857 154.731C98.7314 155.972 101.564 157.631 103.179 158.416C104.795 159.201 107.573 160.331 109.353 160.926C111.134 161.521 113.966 162.305 115.647 162.667C118.007 163.175 120.304 163.325 125.717 163.325C131.131 163.325 133.427 163.175 135.787 162.667C137.469 162.305 140.275 161.528 142.023 160.941C143.771 160.353 146.409 159.311 147.885 158.623C149.361 157.935 152.194 156.299 154.181 154.986C156.228 153.634 159.356 151.073 161.397 149.079C163.378 147.142 166.035 144.17 167.301 142.475C168.567 140.78 170.564 137.486 171.738 135.156C172.913 132.826 174.361 129.317 174.956 127.36C175.551 125.402 176.322 122.332 176.669 120.537C177.112 118.243 177.297 115.549 177.291 111.471C177.285 107.433 177.09 104.681 176.649 102.419C176.301 100.631 175.521 97.6126 174.917 95.7106C174.314 93.8087 173.189 90.8755 172.418 89.1926C171.647 87.5094 169.952 84.5214 168.652 82.5524C167.352 80.5834 164.837 77.4417 163.063 75.5706C161.289 73.6999 158.675 71.2899 157.253 70.2151C155.832 69.1403 153.332 67.3084 151.697 66.144C150.063 64.9793 147.379 62.6695 145.734 61.0109C144.089 59.3519 141.812 56.6914 140.675 55.0984C139.537 53.5058 137.761 50.5247 136.728 48.4745C135.695 46.4243 134.412 43.3605 133.878 41.6664C133.344 39.9719 132.653 37.4434 132.343 36.0473C132.032 34.6512 131.689 30.9696 131.579 27.866L131.381 22.2226L134.393 22.5069C136.05 22.6632 138.943 23.0493 140.822 23.3655C142.701 23.6814 145.789 24.3345 147.684 24.8167C149.578 25.299 152.793 26.2781 154.828 26.9921C156.863 27.7064 160.168 29.0329 162.173 29.9401C164.177 30.8474 167.517 32.5731 169.594 33.7748C171.671 34.9769 174.503 36.7482 175.888 37.7117C177.272 38.6752 179.78 40.5713 181.46 41.9253C183.14 43.2797 186.219 46.1008 188.302 48.1949C190.385 50.289 193.192 53.3894 194.538 55.0846C195.885 56.7799 198.204 60.0144 199.692 62.2728C201.18 64.5311 203.408 68.3738 204.643 70.8124C205.878 73.2506 207.574 77.0327 208.412 79.2167C209.251 81.4004 210.478 85.1727 211.139 87.5993C211.801 90.0259 212.712 94.1053 213.166 96.6647C213.888 100.743 213.991 102.528 214 111.109C214.006 117.419 213.842 121.995 213.539 123.982C213.28 125.677 212.66 128.922 212.161 131.192C211.663 133.463 210.632 137.216 209.87 139.532C209.109 141.849 207.691 145.54 206.719 147.735C205.748 149.93 204.175 153.112 203.225 154.806C202.274 156.5 200.594 159.273 199.49 160.968C198.386 162.663 196.245 165.602 194.732 167.498C193.219 169.395 190.14 172.779 187.89 175.019C185.641 177.259 182.667 180.004 181.282 181.119C179.898 182.234 176.851 184.433 174.512 186.004C172.173 187.575 168.369 189.831 166.06 191.018C163.751 192.205 160.235 193.829 158.247 194.627C156.259 195.426 152.932 196.578 150.854 197.189C148.776 197.799 145.87 198.556 144.398 198.87C142.926 199.184 140.103 199.68 138.125 199.971C136.147 200.262 131.858 200.602 128.594 200.727C124.894 200.869 120.968 200.789 118.165 200.516C115.692 200.274 112.294 199.84 110.612 199.551C108.931 199.262 106.18 198.685 104.498 198.27C102.817 197.854 99.7679 196.953 97.7229 196.267C95.6776 195.581 92.3455 194.287 90.3182 193.392C88.2905 192.497 84.9469 190.813 82.8876 189.651C80.8283 188.489 78.6413 187.241 78.0281 186.878C77.0642 186.309 76.7621 186.282 75.8062 186.681C75.1973 186.935 74.5665 187.414 74.4039 187.745C74.2414 188.075 74.0274 192.153 73.9285 196.806L73.7487 205.267L55.2712 216.674C45.1084 222.948 36.7578 228.033 36.7139 227.976C36.6704 227.918 36.7567 199.805 36.9063 165.501C37.1358 112.791 37.2616 102.57 37.7195 99.5051C38.0176 97.5107 38.697 93.9208 39.2289 91.5275C39.7612 89.1342 40.7524 85.4628 41.4321 83.3687C42.1118 81.2746 43.4583 77.7662 44.4243 75.5724C45.3903 73.3786 46.9404 70.1966 47.8686 68.5014C48.7965 66.8062 50.448 64.0322 51.5381 62.3369C52.6282 60.6417 54.5886 57.8721 55.8945 56.1819C57.2003 54.4918 59.8908 51.4077 61.8728 49.3285C63.8552 47.2489 67.2226 44.1072 69.3567 42.3467C71.4905 40.5862 74.8445 38.0765 76.81 36.7696C78.7758 35.4628 82.2086 33.4285 84.4391 32.2485C86.6692 31.069 90.3297 29.361 92.5735 28.453C94.817 27.5451 98.3243 26.3114 100.367 25.7113C102.411 25.1112 105.592 24.3109 107.437 23.933C109.282 23.5552 112.249 23.0653 114.029 22.8445C115.809 22.624 117.751 22.3876 118.345 22.3194C118.938 22.2512 119.545 22.1707 119.693 22.141C119.842 22.1109 119.962 23.9225 119.961 26.166Z" fill="black"/>
<path fill-rule="evenodd" clip-rule="evenodd" d="M150.456 94.1236C151.336 95.3522 152.603 97.555 153.273 99.0189C153.942 100.483 154.742 102.578 155.051 103.675C155.359 104.772 155.777 107.038 155.979 108.711C156.232 110.805 156.229 112.816 155.969 115.169C155.761 117.049 155.196 119.807 154.713 121.298C154.231 122.789 153.412 124.859 152.894 125.899C152.377 126.938 151.263 128.768 150.42 129.965C149.576 131.161 147.923 133.065 146.746 134.194C145.568 135.323 143.486 136.977 142.118 137.869C140.75 138.761 138.66 139.902 137.473 140.405C136.285 140.909 134.262 141.614 132.977 141.972C131.241 142.456 129.345 142.624 125.605 142.624C121.865 142.624 119.969 142.456 118.233 141.972C116.948 141.614 114.925 140.909 113.738 140.405C112.55 139.902 110.46 138.761 109.092 137.869C107.724 136.977 105.642 135.323 104.464 134.194C103.287 133.065 101.619 131.147 100.757 129.932C99.8959 128.718 98.6224 126.515 97.9279 125.037C97.2334 123.559 96.3214 121.044 95.901 119.449C95.3158 117.228 95.1367 115.485 95.1367 112.015C95.1367 108.546 95.3158 106.802 95.901 104.581C96.3214 102.986 97.2205 100.498 97.8995 99.0537C98.5782 97.6091 99.6506 95.6509 100.282 94.7023C100.914 93.7537 106.868 87.4693 113.513 80.7369L125.596 68.4961L137.226 80.193C143.623 86.6262 149.576 92.8951 150.456 94.1236Z" fill="#00CC9B"/>
</svg>
